# 3ds Max Wavefront OBJ Exporter v0.97b - (c)2007 guruware
# File Created: 25.03.2015 11:47:26

#
# object Box001
#

v  -2.8582 -1.7973 6.8103
v  -6.7729 1.7973 -2.9458
v  2.8582 1.7973 -6.8103
v  6.7729 -1.7973 2.9458
v  -2.0053 4.9007 8.9359
v  7.6258 4.9007 5.0714
v  3.7111 8.4953 -4.6848
v  -5.9200 8.4953 -0.8203
# 8 vertices

vn -0.1205 -0.9462 -0.3003
vn 0.1205 0.9462 0.3003
vn 0.3524 -0.3235 0.8782
vn 0.9281 0.0000 -0.3724
vn -0.3524 0.3235 -0.8782
vn -0.9281 0.0000 0.3724
# 6 vertex normals

g Box001
f 1//1 2//1 3//1 
f 3//1 4//1 1//1 
f 5//2 6//2 7//2 
f 7//2 8//2 5//2 
f 1//3 4//3 6//3 
f 6//3 5//3 1//3 
f 4//4 3//4 7//4 
f 7//4 6//4 4//4 
f 3//5 2//5 8//5 
f 8//5 7//5 3//5 
f 2//6 1//6 5//6 
f 5//6 8//6 2//6 
# 12 faces

